<svg id="svg" version="1.1" xmlns="http://www.w3.org/2000/svg" xmlns:xlink="http://www.w3.org/1999/xlink" width="400" height="400" viewBox="0, 0, 400,400"><g id="svgg"><path id="path0" d="M163.000 36.800 C 162.864 37.020,162.133 37.200,161.376 37.200 C 160.619 37.200,160.000 37.380,160.000 37.600 C 160.000 37.820,159.460 38.000,158.800 38.000 C 158.140 38.000,157.600 38.180,157.600 38.400 C 157.600 38.620,157.240 38.800,156.800 38.800 C 156.360 38.800,156.000 38.980,156.000 39.200 C 156.000 39.420,155.724 39.600,155.387 39.600 C 155.049 39.600,154.152 40.185,153.394 40.900 C 152.635 41.615,151.606 42.582,151.107 43.048 C 149.623 44.436,148.800 45.570,148.800 46.228 C 148.800 46.569,148.620 46.736,148.400 46.600 C 148.180 46.464,148.000 46.713,148.000 47.153 C 148.000 47.593,147.820 48.064,147.600 48.200 C 147.380 48.336,147.200 48.887,147.200 49.424 C 147.200 49.961,147.020 50.400,146.800 50.400 C 146.185 50.400,146.262 71.302,146.880 71.920 C 147.712 72.752,233.437 72.601,233.757 71.767 C 234.181 70.664,234.034 51.668,233.600 51.400 C 233.380 51.264,233.200 50.623,233.200 49.976 C 233.200 49.329,233.020 48.800,232.800 48.800 C 232.580 48.800,232.400 48.440,232.400 48.000 C 232.400 47.560,232.220 47.200,232.000 47.200 C 231.780 47.200,231.600 46.840,231.600 46.400 C 231.600 45.960,231.442 45.600,231.249 45.600 C 231.055 45.600,230.688 45.094,230.431 44.476 C 230.175 43.858,229.589 43.093,229.128 42.776 C 228.667 42.459,227.909 41.836,227.445 41.391 C 226.037 40.044,224.114 38.800,223.438 38.800 C 223.087 38.800,222.800 38.620,222.800 38.400 C 222.800 38.180,222.361 38.000,221.824 38.000 C 221.287 38.000,220.736 37.820,220.600 37.600 C 220.464 37.380,219.654 37.200,218.800 37.200 C 217.946 37.200,217.136 37.020,217.000 36.800 C 216.525 36.031,205.300 36.292,204.858 37.082 C 204.326 38.032,176.493 37.930,175.756 36.975 C 175.220 36.281,163.421 36.119,163.000 36.800 M145.400 99.962 C 131.530 103.775,112.662 117.336,101.934 131.200 C 89.032 147.874,82.609 166.926,82.652 188.400 C 82.671 198.116,83.265 203.023,85.436 211.400 C 102.516 277.302,181.946 303.439,234.775 260.541 C 239.319 256.851,239.450 257.002,231.700 256.986 C 218.040 256.958,215.669 255.718,219.560 250.637 C 223.667 245.274,224.483 239.174,222.136 231.400 C 219.210 221.712,219.828 215.752,224.484 208.729 L 225.990 206.459 224.495 205.962 C 217.274 203.563,205.737 206.589,197.600 213.016 C 187.313 221.141,175.293 223.399,164.600 219.214 C 141.136 210.032,135.517 182.022,153.532 164.036 C 160.471 157.109,160.349 150.282,153.213 146.075 C 148.498 143.296,144.340 144.766,137.512 151.625 C 130.345 158.824,126.415 159.780,120.967 155.648 C 112.799 149.454,117.832 139.396,135.065 127.478 C 137.993 125.453,147.447 120.400,148.308 120.400 C 148.663 120.400,151.194 119.294,153.585 118.095 C 163.698 113.020,156.434 96.928,145.400 99.962 M248.910 180.700 C 247.466 183.972,245.207 189.791,244.437 192.223 C 243.953 193.750,243.373 195.334,243.149 195.742 C 242.891 196.210,242.887 196.394,243.136 196.239 C 243.354 196.105,243.592 196.133,243.666 196.303 C 243.740 196.472,246.410 198.116,249.600 199.955 C 252.790 201.795,256.030 203.667,256.800 204.115 C 257.570 204.563,259.460 205.589,261.000 206.394 C 264.855 208.410,269.318 210.855,269.800 211.215 C 270.020 211.380,270.886 211.897,271.726 212.365 C 272.565 212.832,273.645 213.469,274.126 213.780 C 274.958 214.318,275.153 214.168,278.200 210.631 C 281.927 206.305,282.284 205.867,283.595 204.000 C 284.136 203.230,284.898 202.251,285.289 201.825 C 286.244 200.783,286.205 200.654,284.700 199.876 C 283.068 199.033,281.172 197.935,279.862 197.077 C 279.306 196.713,278.234 196.069,277.480 195.645 C 276.726 195.222,275.680 194.633,275.155 194.338 C 274.630 194.042,274.110 193.710,274.000 193.600 C 273.890 193.490,273.140 193.040,272.333 192.600 C 271.526 192.160,268.916 190.652,266.533 189.248 C 264.150 187.845,261.210 186.154,260.000 185.491 C 258.790 184.827,257.620 184.150,257.400 183.985 C 257.025 183.704,256.193 183.225,252.500 181.162 C 251.675 180.702,250.829 180.162,250.620 179.962 C 249.957 179.330,249.410 179.567,248.910 180.700 M92.656 304.589 C 91.729 305.291,91.772 322.332,92.702 323.262 C 92.976 323.536,93.200 324.073,93.200 324.455 C 93.200 325.217,95.433 329.483,96.274 330.329 C 96.563 330.619,96.800 330.997,96.800 331.169 C 96.800 331.685,100.946 335.600,101.493 335.600 C 101.772 335.600,102.000 335.735,102.000 335.901 C 102.000 336.295,105.475 338.133,106.221 338.133 C 106.539 338.133,106.800 338.283,106.800 338.467 C 106.800 338.650,107.214 338.800,107.720 338.800 C 108.226 338.800,108.836 338.996,109.075 339.235 C 109.370 339.530,111.088 339.583,114.455 339.400 C 120.207 339.088,144.276 339.090,162.400 339.406 C 170.925 339.554,175.259 339.488,175.800 339.201 C 176.343 338.912,181.153 338.846,190.800 338.992 C 204.470 339.201,211.083 339.225,245.600 339.191 C 254.290 339.183,263.560 339.208,266.200 339.247 C 271.035 339.319,273.600 339.009,273.600 338.355 C 273.600 338.160,273.960 338.000,274.400 338.000 C 274.840 338.000,275.200 337.820,275.200 337.600 C 275.200 337.380,275.560 337.200,276.000 337.200 C 276.440 337.200,276.800 337.020,276.800 336.800 C 276.800 336.580,277.067 336.400,277.393 336.400 C 277.719 336.400,278.484 335.961,279.093 335.425 C 279.702 334.888,280.875 333.879,281.700 333.183 C 282.525 332.487,283.200 331.732,283.200 331.505 C 283.200 331.279,283.534 330.803,283.943 330.447 C 284.816 329.686,286.400 326.701,286.400 325.816 C 286.400 325.477,286.580 325.200,286.800 325.200 C 287.020 325.200,287.200 324.660,287.200 324.000 C 287.200 323.340,287.365 322.800,287.567 322.800 C 288.641 322.800,289.094 305.734,288.047 304.758 C 286.952 303.738,93.999 303.571,92.656 304.589 " stroke="none" fill="#0dbfd3" fill-rule="evenodd"></path><path id="path1" d="M184.300 0.265 C 183.695 0.369,183.200 0.621,183.200 0.827 C 183.200 1.032,182.880 1.200,182.488 1.200 C 182.097 1.200,181.517 1.560,181.200 2.000 C 180.883 2.440,180.433 2.800,180.200 2.800 C 179.967 2.800,179.512 3.195,179.188 3.677 C 178.865 4.159,178.240 4.946,177.800 5.425 C 177.360 5.905,176.941 6.543,176.868 6.845 C 176.795 7.146,176.525 7.526,176.268 7.690 C 176.011 7.854,175.926 7.991,176.080 7.994 C 176.233 7.997,176.116 8.585,175.819 9.300 C 174.946 11.399,174.929 36.077,175.800 36.800 C 176.466 37.352,203.070 37.132,204.556 36.562 C 205.321 36.268,205.542 10.000,204.780 10.000 C 204.571 10.000,204.400 9.710,204.400 9.354 C 204.400 7.572,199.226 1.200,197.780 1.200 C 197.497 1.200,197.193 0.978,197.102 0.707 C 196.935 0.206,186.717 -0.147,184.300 0.265 M342.600 47.600 C 342.464 47.820,341.913 48.000,341.376 48.000 C 340.839 48.000,340.400 48.180,340.400 48.400 C 340.400 48.620,340.106 48.800,339.747 48.800 C 339.388 48.800,338.803 49.124,338.447 49.519 C 338.091 49.914,337.170 50.671,336.400 51.201 C 334.848 52.269,332.400 54.771,332.400 55.289 C 332.400 55.471,331.635 56.409,330.700 57.373 C 328.858 59.270,327.119 61.393,325.597 63.600 C 325.065 64.370,324.129 65.477,323.515 66.060 C 322.902 66.644,322.400 67.297,322.400 67.512 C 322.400 67.727,321.684 68.641,320.809 69.543 C 319.813 70.569,319.306 71.411,319.453 71.795 C 319.600 72.176,318.731 73.653,317.155 75.704 C 310.656 84.162,298.800 100.147,293.765 107.241 C 284.287 120.595,282.282 123.521,276.391 132.600 C 267.510 146.288,267.200 146.775,267.200 147.033 C 267.200 147.167,266.860 147.754,266.444 148.338 C 263.675 152.229,252.034 173.504,250.329 177.791 L 249.696 179.383 252.748 181.138 C 254.427 182.104,256.340 183.213,257.000 183.604 C 257.660 183.995,262.520 186.786,267.800 189.806 C 273.080 192.827,277.985 195.636,278.700 196.049 C 280.599 197.146,282.773 198.385,284.655 199.444 L 286.310 200.375 287.413 198.709 C 288.019 197.792,288.675 196.853,288.870 196.621 C 289.896 195.401,300.800 177.816,300.800 177.381 C 300.800 177.301,301.368 176.282,302.062 175.118 C 305.857 168.747,318.463 144.085,323.693 132.800 C 327.442 124.709,328.385 122.626,330.392 118.000 C 332.846 112.344,333.221 111.600,333.610 111.600 C 333.824 111.600,334.000 111.330,334.000 111.000 C 334.000 110.670,334.180 110.400,334.400 110.400 C 334.620 110.400,334.800 110.040,334.800 109.600 C 334.800 109.160,334.980 108.800,335.200 108.800 C 335.420 108.800,335.600 108.350,335.600 107.800 C 335.600 107.250,335.780 106.800,336.000 106.800 C 336.220 106.800,336.400 106.440,336.400 106.000 C 336.400 105.560,336.580 105.200,336.800 105.200 C 337.020 105.200,337.200 104.851,337.200 104.424 C 337.200 103.997,337.380 103.536,337.600 103.400 C 337.820 103.264,338.000 102.713,338.000 102.176 C 338.000 101.639,338.180 101.200,338.400 101.200 C 338.620 101.200,338.800 100.840,338.800 100.400 C 338.800 99.960,338.980 99.600,339.200 99.600 C 339.420 99.600,339.600 99.161,339.600 98.624 C 339.600 98.087,339.780 97.536,340.000 97.400 C 340.220 97.264,340.400 96.803,340.400 96.376 C 340.400 95.949,340.574 95.600,340.786 95.600 C 340.999 95.600,341.292 94.700,341.438 93.600 C 341.584 92.500,341.860 91.600,342.052 91.600 C 342.243 91.600,342.400 91.240,342.400 90.800 C 342.400 90.360,342.580 90.000,342.800 90.000 C 343.020 90.000,343.200 89.550,343.200 89.000 C 343.200 88.450,343.380 88.000,343.600 88.000 C 343.820 88.000,344.000 87.640,344.000 87.200 C 344.000 86.760,344.180 86.400,344.400 86.400 C 344.620 86.400,344.800 85.860,344.800 85.200 C 344.800 84.540,344.980 84.000,345.200 84.000 C 345.420 84.000,345.600 83.640,345.600 83.200 C 345.600 82.760,345.780 82.400,346.000 82.400 C 346.220 82.400,346.400 81.860,346.400 81.200 C 346.400 80.540,346.580 80.000,346.800 80.000 C 347.020 80.000,347.200 79.640,347.200 79.200 C 347.200 78.760,347.380 78.400,347.600 78.400 C 347.820 78.400,348.000 77.860,348.000 77.200 C 348.000 76.540,348.180 76.000,348.400 76.000 C 348.620 76.000,348.800 75.550,348.800 75.000 C 348.800 74.450,348.980 74.000,349.200 74.000 C 349.420 74.000,349.600 73.651,349.600 73.224 C 349.600 72.797,349.780 72.336,350.000 72.200 C 350.220 72.064,350.400 71.513,350.400 70.976 C 350.400 70.439,350.580 70.000,350.800 70.000 C 351.020 70.000,351.200 69.561,351.200 69.024 C 351.200 68.487,351.380 67.936,351.600 67.800 C 351.820 67.664,352.000 67.124,352.000 66.600 C 352.000 66.076,352.180 65.536,352.400 65.400 C 352.620 65.264,352.800 64.623,352.800 63.976 C 352.800 63.329,352.980 62.800,353.200 62.800 C 353.446 62.800,353.600 60.808,353.600 57.624 C 353.600 54.604,353.433 52.344,353.200 52.200 C 352.980 52.064,352.800 51.687,352.800 51.363 C 352.800 50.585,350.197 48.000,349.413 48.000 C 349.076 48.000,348.800 47.820,348.800 47.600 C 348.800 47.369,347.541 47.200,345.824 47.200 C 344.187 47.200,342.736 47.380,342.600 47.600 M118.100 340.198 C 117.825 340.511,117.600 341.224,117.600 341.783 C 117.600 342.342,117.458 342.800,117.285 342.800 C 117.112 342.800,116.940 343.202,116.903 343.694 C 116.866 344.186,116.648 344.651,116.418 344.727 C 116.188 344.804,116.000 345.381,116.000 346.010 C 116.000 346.638,115.820 347.264,115.600 347.400 C 115.380 347.536,115.200 348.087,115.200 348.624 C 115.200 349.161,115.020 349.600,114.800 349.600 C 114.580 349.600,114.400 350.061,114.400 350.624 C 114.400 351.187,114.258 351.560,114.085 351.452 C 113.912 351.345,113.730 351.740,113.681 352.329 C 113.633 352.918,113.415 353.460,113.197 353.533 C 112.978 353.607,112.800 354.192,112.800 354.833 C 112.800 355.475,112.620 356.000,112.400 356.000 C 112.180 356.000,112.000 356.540,112.000 357.200 C 112.000 357.860,111.853 358.400,111.672 358.400 C 111.492 358.400,111.100 359.300,110.800 360.400 C 110.500 361.500,110.097 362.400,109.904 362.400 C 109.711 362.400,109.644 362.548,109.756 362.729 C 109.868 362.909,109.692 363.573,109.365 364.202 C 109.038 364.832,108.862 365.584,108.973 365.874 C 109.084 366.163,109.001 366.400,108.787 366.400 C 108.574 366.400,108.400 366.850,108.400 367.400 C 108.400 367.950,108.220 368.400,108.000 368.400 C 107.780 368.400,107.600 368.940,107.600 369.600 C 107.600 370.260,107.420 370.800,107.200 370.800 C 106.980 370.800,106.800 371.340,106.800 372.000 C 106.800 372.660,106.620 373.200,106.400 373.200 C 106.180 373.200,106.000 373.472,106.000 373.805 C 106.000 374.138,105.820 374.768,105.600 375.205 C 105.380 375.642,105.020 376.358,104.800 376.795 C 104.580 377.232,104.400 377.864,104.400 378.200 C 104.400 378.536,104.220 379.168,104.000 379.605 C 103.780 380.042,103.420 380.758,103.200 381.195 C 102.980 381.632,102.800 382.341,102.800 382.771 C 102.800 383.201,102.620 383.664,102.400 383.800 C 102.180 383.936,102.000 384.487,102.000 385.024 C 102.000 385.561,101.820 386.000,101.600 386.000 C 101.380 386.000,101.200 386.450,101.200 387.000 C 101.200 387.550,101.020 388.000,100.800 388.000 C 100.580 388.000,100.400 388.439,100.400 388.976 C 100.400 389.513,100.220 390.064,100.000 390.200 C 99.780 390.336,99.600 390.715,99.600 391.043 C 99.600 391.371,99.240 392.384,98.800 393.294 C 98.360 394.205,98.000 395.276,98.000 395.675 C 98.000 396.074,97.820 396.400,97.600 396.400 C 97.380 396.400,97.200 396.940,97.200 397.600 C 97.200 398.260,97.020 398.800,96.800 398.800 C 96.580 398.800,96.400 399.070,96.400 399.400 C 96.400 400.019,127.001 400.358,128.567 399.757 C 128.942 399.613,129.200 399.043,129.200 398.357 C 129.200 397.721,129.380 397.200,129.600 397.200 C 129.820 397.200,130.000 396.851,130.000 396.424 C 130.000 395.997,130.180 395.536,130.400 395.400 C 130.620 395.264,130.800 394.713,130.800 394.176 C 130.800 393.639,130.980 393.200,131.200 393.200 C 131.420 393.200,131.600 392.761,131.600 392.224 C 131.600 391.687,131.780 391.136,132.000 391.000 C 132.220 390.864,132.400 390.324,132.400 389.800 C 132.400 389.276,132.580 388.736,132.800 388.600 C 133.020 388.464,133.200 388.003,133.200 387.576 C 133.200 387.149,133.380 386.800,133.600 386.800 C 133.820 386.800,134.000 386.271,134.000 385.624 C 134.000 384.977,134.180 384.336,134.400 384.200 C 134.620 384.064,134.800 383.603,134.800 383.176 C 134.800 382.749,134.980 382.400,135.200 382.400 C 135.420 382.400,135.600 381.860,135.600 381.200 C 135.600 380.540,135.780 380.000,136.000 380.000 C 136.220 380.000,136.400 379.651,136.400 379.224 C 136.400 378.797,136.580 378.336,136.800 378.200 C 137.020 378.064,137.200 377.513,137.200 376.976 C 137.200 376.439,137.380 376.000,137.600 376.000 C 137.820 376.000,138.000 375.561,138.000 375.024 C 138.000 374.487,138.180 373.936,138.400 373.800 C 138.620 373.664,138.800 373.201,138.800 372.771 C 138.800 372.341,138.967 371.677,139.171 371.295 C 139.549 370.587,140.079 369.084,140.018 368.896 C 139.999 368.839,140.261 368.255,140.600 367.600 C 140.939 366.945,141.220 366.271,141.226 366.104 C 141.248 365.363,141.680 363.741,142.024 363.105 C 142.231 362.723,142.400 362.138,142.400 361.805 C 142.400 361.472,142.580 361.200,142.800 361.200 C 143.020 361.200,143.200 360.660,143.200 360.000 C 143.200 359.340,143.380 358.800,143.600 358.800 C 143.820 358.800,144.000 358.260,144.000 357.600 C 144.000 356.940,144.180 356.400,144.400 356.400 C 144.620 356.400,144.800 356.040,144.800 355.600 C 144.800 355.160,144.980 354.800,145.200 354.800 C 145.420 354.800,145.600 354.348,145.600 353.795 C 145.600 353.242,145.780 352.432,146.000 351.995 C 146.220 351.558,146.580 350.842,146.800 350.405 C 147.020 349.968,147.200 349.248,147.200 348.805 C 147.200 348.362,147.380 348.000,147.600 348.000 C 147.820 348.000,148.000 347.651,148.000 347.224 C 148.000 346.797,148.180 346.336,148.400 346.200 C 148.620 346.064,148.800 345.524,148.800 345.000 C 148.800 344.476,148.980 343.936,149.200 343.800 C 149.420 343.664,149.600 343.124,149.600 342.600 C 149.600 342.076,149.780 341.536,150.000 341.400 C 150.220 341.264,150.400 340.803,150.400 340.376 C 150.400 339.342,119.006 339.169,118.100 340.198 M175.200 369.800 L 175.200 400.000 190.200 400.000 L 205.200 400.000 205.200 369.800 L 205.200 339.600 190.200 339.600 L 175.200 339.600 175.200 369.800 M229.738 340.597 C 229.992 341.145,230.335 341.595,230.500 341.597 C 230.665 341.599,230.800 341.963,230.800 342.406 C 230.800 343.533,231.731 346.400,232.097 346.400 C 232.264 346.400,232.400 346.940,232.400 347.600 C 232.400 348.260,232.580 348.800,232.800 348.800 C 233.020 348.800,233.200 349.149,233.200 349.576 C 233.200 350.003,233.380 350.464,233.600 350.600 C 233.820 350.736,234.000 351.276,234.000 351.800 C 234.000 352.324,234.180 352.864,234.400 353.000 C 234.620 353.136,234.800 353.597,234.800 354.024 C 234.800 354.451,234.980 354.800,235.200 354.800 C 235.420 354.800,235.600 355.252,235.600 355.805 C 235.600 356.358,235.759 357.123,235.953 357.505 C 236.148 357.887,236.529 358.740,236.800 359.400 C 237.071 360.060,237.452 360.913,237.647 361.295 C 237.841 361.677,238.000 362.352,238.000 362.795 C 238.000 363.238,238.180 363.600,238.400 363.600 C 238.620 363.600,238.800 364.140,238.800 364.800 C 238.800 365.460,238.980 366.000,239.200 366.000 C 239.420 366.000,239.600 366.362,239.600 366.805 C 239.600 367.248,239.780 367.968,240.000 368.405 C 240.220 368.842,240.580 369.558,240.800 369.995 C 241.020 370.432,241.200 371.152,241.200 371.595 C 241.200 372.038,241.380 372.400,241.600 372.400 C 241.820 372.400,242.000 372.850,242.000 373.400 C 242.000 373.950,242.191 374.400,242.425 374.400 C 242.659 374.400,242.810 374.715,242.762 375.100 C 242.644 376.031,243.196 378.019,243.830 378.946 C 244.110 379.356,244.244 379.941,244.127 380.246 C 244.010 380.551,244.114 380.800,244.357 380.800 C 244.601 380.800,244.800 381.162,244.800 381.605 C 244.800 382.048,244.959 382.723,245.153 383.105 C 245.348 383.487,245.729 384.340,246.000 385.000 C 246.271 385.660,246.652 386.513,246.847 386.895 C 247.041 387.277,247.200 387.952,247.200 388.395 C 247.200 388.838,247.380 389.200,247.600 389.200 C 247.820 389.200,248.000 389.740,248.000 390.400 C 248.000 391.060,248.147 391.600,248.328 391.600 C 248.508 391.600,248.900 392.500,249.200 393.600 C 249.500 394.700,249.892 395.600,250.072 395.600 C 250.253 395.600,250.400 396.039,250.400 396.576 C 250.400 397.113,250.580 397.664,250.800 397.800 C 251.020 397.936,251.200 398.487,251.200 399.024 L 251.200 400.000 267.586 400.000 L 283.972 400.000 283.186 398.167 C 282.754 397.159,282.400 395.978,282.400 395.543 C 282.400 395.108,282.220 394.864,282.000 395.000 C 281.767 395.144,281.600 394.737,281.600 394.024 C 281.600 393.351,281.420 392.800,281.200 392.800 C 280.980 392.800,280.800 392.260,280.800 391.600 C 280.800 390.940,280.620 390.400,280.400 390.400 C 280.180 390.400,280.000 389.961,280.000 389.424 C 280.000 388.887,279.820 388.336,279.600 388.200 C 279.380 388.064,279.200 387.603,279.200 387.176 C 279.200 386.749,279.020 386.400,278.800 386.400 C 278.580 386.400,278.400 385.860,278.400 385.200 C 278.400 384.540,278.220 384.000,278.000 384.000 C 277.780 384.000,277.600 383.460,277.600 382.800 C 277.600 382.140,277.420 381.600,277.200 381.600 C 276.980 381.600,276.800 381.240,276.800 380.800 C 276.800 380.360,276.620 380.000,276.400 380.000 C 276.180 380.000,276.000 379.550,276.000 379.000 C 276.000 378.450,275.844 378.000,275.654 378.000 C 275.464 378.000,275.194 377.163,275.054 376.140 C 274.914 375.118,274.636 374.083,274.437 373.840 C 274.239 373.598,274.014 373.040,273.938 372.600 C 273.862 372.160,273.666 371.700,273.502 371.578 C 273.338 371.455,273.164 370.870,273.115 370.278 C 273.066 369.685,272.917 369.200,272.785 369.200 C 272.653 369.200,272.296 368.289,271.993 367.175 C 271.690 366.061,271.297 365.060,271.121 364.951 C 270.944 364.842,270.800 364.313,270.800 363.776 C 270.800 363.239,270.664 362.800,270.497 362.800 C 270.172 362.800,269.200 359.984,269.200 359.040 C 269.200 358.725,269.022 358.407,268.803 358.333 C 268.585 358.260,268.367 357.718,268.319 357.129 C 268.270 356.540,268.088 356.145,267.915 356.252 C 267.742 356.360,267.600 356.068,267.600 355.604 C 267.600 355.141,267.240 354.016,266.800 353.106 C 266.360 352.195,266.000 351.049,266.000 350.558 C 266.000 350.068,265.822 349.607,265.603 349.533 C 265.385 349.460,265.166 348.905,265.116 348.300 C 265.066 347.695,264.885 347.200,264.713 347.200 C 264.541 347.200,264.400 346.851,264.400 346.424 C 264.400 345.997,264.220 345.536,264.000 345.400 C 263.780 345.264,263.600 344.713,263.600 344.176 C 263.600 343.639,263.420 343.200,263.200 343.200 C 262.980 343.200,262.800 342.851,262.800 342.424 C 262.800 341.997,262.620 341.536,262.400 341.400 C 262.180 341.264,262.000 340.803,262.000 340.376 C 262.000 339.621,261.567 339.600,245.638 339.600 L 229.275 339.600 229.738 340.597 " stroke="none" fill="#cb7439" fill-rule="evenodd"></path><path id="path2" d="M55.200 72.000 C 55.200 72.220,54.784 72.400,54.275 72.400 C 53.767 72.400,52.964 72.760,52.492 73.200 C 52.020 73.640,51.438 74.000,51.199 74.000 C 50.643 74.000,48.800 75.830,48.800 76.382 C 48.800 76.612,48.620 76.800,48.400 76.800 C 48.180 76.800,48.000 77.070,48.000 77.400 C 48.000 77.730,47.820 78.000,47.600 78.000 C 47.380 78.000,47.200 78.450,47.200 79.000 C 47.200 79.550,47.020 80.000,46.800 80.000 C 46.534 80.000,46.400 116.333,46.400 188.200 C 46.400 260.067,46.534 296.400,46.800 296.400 C 47.020 296.400,47.200 296.760,47.200 297.200 C 47.200 297.640,47.380 298.000,47.600 298.000 C 47.820 298.000,48.000 298.320,48.000 298.712 C 48.000 299.103,48.360 299.683,48.800 300.000 C 49.240 300.317,49.600 300.807,49.600 301.088 C 49.600 301.370,49.772 301.600,49.982 301.600 C 50.192 301.600,50.814 302.050,51.364 302.600 C 51.914 303.150,52.642 303.600,52.982 303.600 C 53.322 303.600,53.600 303.780,53.600 304.000 C 53.600 304.220,54.140 304.400,54.800 304.400 C 55.460 304.400,56.000 304.573,56.000 304.784 C 56.000 305.490,91.675 305.330,92.613 304.620 C 93.814 303.712,286.950 303.693,287.857 304.600 C 288.586 305.329,324.400 305.525,324.400 304.800 C 324.400 304.580,324.940 304.400,325.600 304.400 C 326.260 304.400,326.800 304.220,326.800 304.000 C 326.800 303.780,327.074 303.600,327.409 303.600 C 328.201 303.600,332.400 299.401,332.400 298.609 C 332.400 298.274,332.580 298.000,332.800 298.000 C 333.020 298.000,333.200 297.460,333.200 296.800 C 333.200 296.140,333.380 295.600,333.600 295.600 C 333.866 295.600,334.000 264.667,334.000 203.600 C 334.000 144.106,333.862 111.600,333.610 111.600 C 333.221 111.600,332.846 112.344,330.392 118.000 C 328.385 122.626,327.442 124.709,323.693 132.800 C 318.463 144.085,305.857 168.747,302.062 175.118 C 301.368 176.282,300.800 177.301,300.800 177.381 C 300.800 177.805,289.933 195.345,288.893 196.600 C 288.710 196.820,287.773 198.170,286.811 199.600 C 285.848 201.030,284.948 202.290,284.811 202.400 C 284.674 202.510,284.123 203.230,283.586 204.000 C 282.269 205.892,281.907 206.336,278.096 210.730 L 274.792 214.541 275.042 216.979 C 276.419 230.422,266.712 246.480,253.400 252.781 C 248.554 255.074,247.258 255.484,240.707 256.795 C 239.446 257.048,238.304 257.432,238.169 257.649 C 237.122 259.344,225.378 267.630,219.899 270.539 C 166.442 298.924,100.617 269.973,85.436 211.400 C 83.265 203.023,82.671 198.116,82.652 188.400 C 82.575 149.549,105.575 115.740,142.000 101.161 C 148.827 98.428,153.895 99.574,156.968 104.545 C 159.738 109.025,158.030 115.864,153.585 118.095 C 151.194 119.294,148.663 120.400,148.308 120.400 C 147.447 120.400,137.993 125.453,135.065 127.478 C 117.832 139.396,112.799 149.454,120.967 155.648 C 126.415 159.780,130.345 158.824,137.512 151.625 C 144.340 144.766,148.498 143.296,153.213 146.075 C 160.349 150.282,160.471 157.109,153.532 164.036 C 139.602 177.944,139.201 197.894,152.581 211.443 C 164.843 223.861,183.063 224.497,197.600 213.016 C 205.713 206.608,217.278 203.563,224.451 205.948 C 225.899 206.429,225.909 206.424,228.315 204.115 C 231.346 201.206,235.440 198.740,239.474 197.394 C 243.089 196.187,243.299 196.010,243.972 193.600 C 245.615 187.712,250.761 176.205,256.585 165.400 C 259.112 160.712,265.475 149.700,266.444 148.338 C 266.860 147.754,267.200 147.167,267.200 147.033 C 267.200 146.775,267.510 146.288,276.391 132.600 C 282.291 123.507,284.322 120.543,293.767 107.241 C 299.005 99.864,311.099 83.565,316.949 76.000 C 318.395 74.130,319.583 72.375,319.589 72.100 C 319.598 71.703,310.739 71.600,276.600 71.600 C 248.200 71.600,233.600 71.736,233.600 72.000 C 233.600 72.264,218.941 72.400,190.424 72.400 C 162.071 72.400,147.162 72.263,147.000 72.000 C 146.658 71.447,55.200 71.447,55.200 72.000 " stroke="none" fill="#ebebf3" fill-rule="evenodd"></path><path id="path3" d="M198.000 36.861 C 194.370 37.049,187.854 37.157,183.519 37.101 C 179.185 37.046,175.765 37.121,175.919 37.268 C 176.138 37.477,202.282 37.821,204.257 37.642 C 204.509 37.619,204.818 37.330,204.945 37.000 C 205.071 36.670,205.046 36.427,204.887 36.460 C 204.729 36.493,201.630 36.673,198.000 36.861 M276.000 194.764 C 276.550 195.214,277.180 195.583,277.400 195.585 C 277.828 195.588,277.105 195.034,275.800 194.360 C 275.269 194.085,275.336 194.221,276.000 194.764 M239.903 197.251 C 230.271 200.423,222.875 208.034,220.833 216.877 C 219.925 220.813,220.341 225.457,222.136 231.400 C 224.483 239.174,223.667 245.274,219.560 250.637 C 217.182 253.742,217.645 255.784,220.881 256.460 C 223.449 256.996,238.658 257.237,240.777 256.775 C 241.780 256.556,243.500 256.189,244.600 255.959 C 260.192 252.700,272.813 238.949,274.816 223.036 C 275.658 216.349,274.526 212.400,271.767 212.400 C 271.633 212.400,271.046 212.068,270.462 211.662 C 269.336 210.878,265.618 208.809,261.000 206.394 C 259.460 205.589,257.570 204.563,256.800 204.115 C 256.030 203.667,252.790 201.798,249.600 199.961 C 246.410 198.125,243.710 196.505,243.600 196.361 C 243.490 196.217,241.826 196.618,239.903 197.251 M279.686 197.000 C 280.495 197.550,281.245 198.000,281.352 198.000 C 281.459 198.000,282.461 198.568,283.578 199.262 C 284.695 199.957,285.694 200.439,285.799 200.334 C 285.904 200.229,285.317 199.779,284.495 199.333 C 281.391 197.651,279.788 196.713,279.420 196.362 C 279.211 196.163,278.854 196.000,278.627 196.000 C 278.400 196.000,278.877 196.450,279.686 197.000 M119.000 339.200 C 118.535 339.400,124.991 339.553,134.400 339.566 C 144.997 339.580,150.392 339.454,150.000 339.200 C 149.250 338.715,120.128 338.715,119.000 339.200 M175.800 339.200 C 175.637 339.464,180.628 339.598,190.476 339.594 C 200.259 339.590,205.193 339.454,204.800 339.200 C 203.975 338.667,176.129 338.667,175.800 339.200 M230.200 339.200 C 229.736 339.400,236.280 339.553,245.800 339.566 C 256.526 339.580,261.992 339.454,261.600 339.200 C 260.850 338.715,231.328 338.715,230.200 339.200 " stroke="none" fill="#445c64" fill-rule="evenodd"></path></g></svg>