<svg id="svg" version="1.1" xmlns="http://www.w3.org/2000/svg" xmlns:xlink="http://www.w3.org/1999/xlink" width="400" height="400" viewBox="0, 0, 400,400"><g id="svgg"><path id="path0" d="M161.400 222.000 C 161.255 222.235,158.929 222.400,155.776 222.400 C 152.459 222.400,150.400 222.553,150.400 222.800 C 150.400 223.020,149.421 223.200,148.224 223.200 C 147.027 223.200,145.936 223.380,145.800 223.600 C 145.664 223.820,144.854 224.000,144.000 224.000 C 143.146 224.000,142.351 224.156,142.233 224.347 C 142.115 224.538,141.132 224.812,140.049 224.956 C 138.262 225.193,134.218 226.330,132.200 227.163 C 129.760 228.170,128.932 228.528,128.305 228.847 C 127.923 229.041,127.338 229.200,127.005 229.200 C 126.672 229.200,126.400 229.380,126.400 229.600 C 126.400 229.820,126.040 230.000,125.600 230.000 C 125.160 230.000,124.800 230.180,124.800 230.400 C 124.800 230.620,124.440 230.800,124.000 230.800 C 123.560 230.800,123.200 230.980,123.200 231.200 C 123.200 231.420,122.840 231.600,122.400 231.600 C 121.960 231.600,121.600 231.780,121.600 232.000 C 121.600 232.220,121.364 232.400,121.075 232.400 C 120.787 232.400,120.164 232.760,119.692 233.200 C 119.220 233.640,118.556 234.000,118.217 234.000 C 117.878 234.000,117.600 234.180,117.600 234.400 C 117.600 234.620,117.280 234.800,116.888 234.800 C 116.497 234.800,115.917 235.160,115.600 235.600 C 115.283 236.040,114.743 236.400,114.400 236.400 C 114.057 236.400,113.517 236.760,113.200 237.200 C 112.883 237.640,112.393 238.000,112.112 238.000 C 111.830 238.000,111.600 238.180,111.600 238.400 C 111.600 238.620,111.370 238.800,111.088 238.800 C 110.807 238.800,110.317 239.160,110.000 239.600 C 109.683 240.040,109.275 240.400,109.094 240.400 C 108.912 240.400,108.331 240.805,107.803 241.300 C 107.275 241.795,105.711 243.190,104.328 244.400 C 102.946 245.610,101.181 247.300,100.407 248.156 C 99.633 249.013,98.055 250.674,96.900 251.848 C 95.745 253.022,94.800 254.122,94.800 254.291 C 94.799 254.461,94.337 255.137,93.772 255.794 C 93.208 256.450,92.365 257.665,91.899 258.494 C 91.434 259.322,90.906 260.000,90.726 260.000 C 90.547 260.000,90.400 260.188,90.400 260.417 C 90.400 260.646,90.040 261.220,89.600 261.692 C 89.160 262.164,88.800 262.787,88.800 263.075 C 88.800 263.364,88.620 263.600,88.400 263.600 C 88.180 263.600,88.000 263.960,88.000 264.400 C 88.000 264.840,87.820 265.200,87.600 265.200 C 87.380 265.200,87.200 265.470,87.200 265.800 C 87.200 266.130,87.020 266.400,86.800 266.400 C 86.580 266.400,86.400 266.670,86.400 267.000 C 86.400 267.330,86.220 267.600,86.000 267.600 C 85.780 267.600,85.600 267.960,85.600 268.400 C 85.600 268.840,85.420 269.200,85.200 269.200 C 84.980 269.200,84.800 269.560,84.800 270.000 C 84.800 270.440,84.620 270.800,84.400 270.800 C 84.180 270.800,84.000 271.149,84.000 271.576 C 84.000 272.003,83.820 272.464,83.600 272.600 C 83.380 272.736,83.200 273.287,83.200 273.824 C 83.200 274.361,83.020 274.800,82.800 274.800 C 82.580 274.800,82.400 275.160,82.400 275.600 C 82.400 276.040,82.220 276.400,82.000 276.400 C 81.780 276.400,81.600 276.850,81.600 277.400 C 81.600 277.950,81.420 278.400,81.200 278.400 C 80.980 278.400,80.800 278.839,80.800 279.376 C 80.800 279.913,80.620 280.464,80.400 280.600 C 80.180 280.736,80.000 281.276,80.000 281.800 C 80.000 282.324,79.820 282.864,79.600 283.000 C 79.380 283.136,79.200 283.777,79.200 284.424 C 79.200 285.071,79.020 285.600,78.800 285.600 C 78.580 285.600,78.400 286.320,78.400 287.200 C 78.400 288.080,78.220 288.800,78.000 288.800 C 77.780 288.800,77.600 289.700,77.600 290.800 C 77.600 291.900,77.436 292.800,77.236 292.800 C 76.770 292.800,76.427 296.261,76.157 303.700 L 75.942 309.600 199.971 309.600 L 324.000 309.600 324.000 304.424 C 324.000 301.404,323.833 299.144,323.600 299.000 C 323.380 298.864,323.200 297.784,323.200 296.600 C 323.200 295.416,323.020 294.336,322.800 294.200 C 322.580 294.064,322.400 293.333,322.400 292.576 C 322.400 291.819,322.220 291.200,322.000 291.200 C 321.780 291.200,321.600 290.480,321.600 289.600 C 321.600 288.720,321.420 288.000,321.200 288.000 C 320.980 288.000,320.800 287.460,320.800 286.800 C 320.800 286.140,320.653 285.600,320.472 285.600 C 320.292 285.600,319.900 284.700,319.600 283.600 C 319.300 282.500,318.908 281.600,318.728 281.600 C 318.547 281.600,318.400 281.240,318.400 280.800 C 318.400 280.360,318.220 280.000,318.000 280.000 C 317.780 280.000,317.600 279.735,317.600 279.411 C 317.600 279.087,317.142 278.052,316.582 277.111 C 316.023 276.170,315.462 275.085,315.336 274.700 C 315.210 274.315,314.948 274.000,314.753 274.000 C 314.559 274.000,314.400 273.680,314.400 273.288 C 314.400 272.897,314.040 272.317,313.600 272.000 C 313.160 271.683,312.800 271.143,312.800 270.800 C 312.800 270.457,312.440 269.917,312.000 269.600 C 311.560 269.283,311.200 268.791,311.200 268.508 C 311.200 268.225,310.660 267.428,310.000 266.737 C 309.340 266.046,308.800 265.277,308.800 265.027 C 308.800 264.388,298.713 254.400,298.068 254.400 C 297.876 254.400,297.154 253.860,296.463 253.200 C 295.772 252.540,294.975 252.000,294.692 252.000 C 294.409 252.000,293.917 251.640,293.600 251.200 C 293.283 250.760,292.743 250.400,292.400 250.400 C 292.057 250.400,291.517 250.040,291.200 249.600 C 290.883 249.160,290.393 248.800,290.112 248.800 C 289.830 248.800,289.600 248.620,289.600 248.400 C 289.600 248.180,289.240 248.000,288.800 248.000 C 288.360 248.000,288.000 247.820,288.000 247.600 C 288.000 247.380,287.640 247.200,287.200 247.200 C 286.760 247.200,286.400 247.064,286.400 246.898 C 286.400 246.731,285.815 246.356,285.100 246.064 C 283.161 245.272,281.825 244.629,281.600 244.380 C 281.490 244.258,279.780 243.664,277.800 243.060 C 275.820 242.457,273.647 241.791,272.972 241.582 C 272.296 241.372,271.171 241.200,270.472 241.200 C 269.772 241.200,269.200 241.020,269.200 240.800 C 269.200 240.578,268.133 240.400,266.800 240.400 C 265.467 240.400,264.400 240.222,264.400 240.000 C 264.400 239.744,260.733 239.600,254.200 239.600 C 247.667 239.600,244.000 239.744,244.000 240.000 C 244.000 240.220,243.010 240.400,241.800 240.400 C 240.590 240.400,239.600 240.580,239.600 240.800 C 239.600 241.020,239.075 241.200,238.432 241.200 C 236.714 241.200,231.876 242.435,229.000 243.607 C 228.560 243.786,227.615 244.172,226.900 244.464 C 226.185 244.756,225.600 245.110,225.600 245.251 C 225.600 246.018,223.559 245.808,222.762 244.959 C 222.284 244.451,221.152 243.532,220.247 242.918 C 219.341 242.303,218.123 241.306,217.540 240.700 C 216.956 240.095,216.263 239.600,216.000 239.600 C 215.737 239.600,215.017 239.060,214.400 238.400 C 213.783 237.740,213.031 237.200,212.728 237.200 C 212.425 237.200,211.917 236.840,211.600 236.400 C 211.283 235.960,210.703 235.600,210.312 235.600 C 209.920 235.600,209.600 235.420,209.600 235.200 C 209.600 234.980,209.330 234.800,209.000 234.800 C 208.670 234.800,208.400 234.620,208.400 234.400 C 208.400 234.180,208.130 234.000,207.800 234.000 C 207.470 234.000,207.200 233.820,207.200 233.600 C 207.200 233.380,206.930 233.200,206.600 233.200 C 206.270 233.200,206.000 233.020,206.000 232.800 C 206.000 232.580,205.640 232.400,205.200 232.400 C 204.760 232.400,204.400 232.220,204.400 232.000 C 204.400 231.780,204.040 231.600,203.600 231.600 C 203.160 231.600,202.800 231.420,202.800 231.200 C 202.800 230.980,202.440 230.800,202.000 230.800 C 201.560 230.800,201.200 230.620,201.200 230.400 C 201.200 230.180,200.840 230.000,200.400 230.000 C 199.960 230.000,199.600 229.820,199.600 229.600 C 199.600 229.380,199.240 229.200,198.800 229.200 C 198.360 229.200,198.000 229.053,198.000 228.872 C 198.000 228.692,197.100 228.300,196.000 228.000 C 194.900 227.700,194.000 227.308,194.000 227.128 C 194.000 226.947,193.475 226.800,192.833 226.800 C 192.192 226.800,191.607 226.665,191.533 226.500 C 191.359 226.106,186.365 224.800,185.034 224.800 C 184.465 224.800,184.000 224.620,184.000 224.400 C 184.000 224.180,183.100 224.000,182.000 224.000 C 180.900 224.000,180.000 223.820,180.000 223.600 C 180.000 223.378,178.933 223.200,177.600 223.200 C 176.267 223.200,175.200 223.022,175.200 222.800 C 175.200 222.555,173.267 222.400,170.200 222.400 C 167.133 222.400,165.200 222.245,165.200 222.000 C 165.200 221.780,164.401 221.600,163.424 221.600 C 162.447 221.600,161.536 221.780,161.400 222.000 " stroke="none" fill="#a4fcc4" fill-rule="evenodd"></path><path id="path1" d="M199.000 13.200 C 198.864 13.420,198.167 13.600,197.452 13.600 C 196.704 13.600,195.786 13.940,195.292 14.400 C 194.820 14.840,194.337 15.200,194.220 15.200 C 194.102 15.200,192.731 16.460,191.172 18.000 C 189.614 19.540,188.169 20.800,187.961 20.800 C 187.753 20.800,186.625 21.745,185.455 22.900 C 183.011 25.312,181.597 26.538,180.638 27.075 C 179.949 27.460,176.343 30.746,170.951 35.900 C 169.283 37.495,167.752 38.800,167.548 38.800 C 167.345 38.800,166.410 39.565,165.470 40.500 C 164.531 41.435,163.070 42.740,162.224 43.400 C 161.378 44.060,159.343 45.905,157.702 47.500 C 156.061 49.095,154.548 50.400,154.340 50.400 C 154.132 50.400,152.719 51.660,151.200 53.200 C 149.681 54.740,148.250 56.000,148.019 56.000 C 147.789 56.000,147.600 56.180,147.600 56.400 C 147.600 56.620,147.415 56.800,147.189 56.800 C 146.963 56.800,145.508 58.015,143.956 59.500 C 142.404 60.985,140.861 62.354,140.527 62.542 C 140.194 62.730,138.665 64.125,137.130 65.642 C 135.595 67.159,134.163 68.400,133.947 68.400 C 133.732 68.400,132.496 69.480,131.200 70.800 L 128.844 73.200 73.622 73.200 C 37.074 73.200,18.400 73.335,18.400 73.600 C 18.400 73.822,17.333 74.000,16.000 74.000 C 14.667 74.000,13.600 74.178,13.600 74.400 C 13.600 74.620,13.219 74.800,12.754 74.800 C 10.695 74.800,2.800 80.835,2.800 82.409 C 2.800 82.643,2.440 83.220,2.000 83.692 C 1.560 84.164,1.200 84.841,1.200 85.195 C 1.200 85.550,0.975 86.065,0.700 86.340 C -0.036 87.076,-0.036 373.655,0.700 373.900 C 0.975 373.992,1.200 374.378,1.200 374.758 C 1.200 375.138,1.560 375.836,2.000 376.308 C 2.440 376.780,2.800 377.357,2.800 377.591 C 2.800 378.121,7.518 382.800,8.829 383.570 C 9.363 383.883,10.520 384.491,11.400 384.920 C 12.280 385.349,13.313 385.858,13.695 386.050 C 14.077 386.243,15.371 386.400,16.571 386.400 C 17.771 386.400,18.864 386.580,19.000 386.800 C 19.343 387.355,380.657 387.355,381.000 386.800 C 381.136 386.580,382.216 386.400,383.400 386.400 C 384.584 386.400,385.664 386.220,385.800 386.000 C 385.936 385.780,386.380 385.600,386.786 385.600 C 387.584 385.600,390.915 383.991,391.133 383.500 C 391.207 383.335,391.435 383.200,391.641 383.200 C 392.159 383.200,397.200 378.113,397.200 377.591 C 397.200 377.357,397.560 376.780,398.000 376.308 C 398.440 375.836,398.800 375.138,398.800 374.758 C 398.800 374.378,399.025 373.992,399.300 373.900 C 400.036 373.655,400.036 87.076,399.300 86.340 C 399.025 86.065,398.800 85.550,398.800 85.195 C 398.800 84.841,398.440 84.164,398.000 83.692 C 397.560 83.220,397.200 82.643,397.200 82.409 C 397.200 80.835,389.305 74.800,387.246 74.800 C 386.781 74.800,386.400 74.620,386.400 74.400 C 386.400 74.178,385.333 74.000,384.000 74.000 C 382.667 74.000,381.600 73.822,381.600 73.600 C 381.600 73.335,362.926 73.200,326.378 73.200 L 271.156 73.200 268.800 70.800 C 267.504 69.480,266.268 68.400,266.053 68.400 C 265.837 68.400,264.418 67.172,262.900 65.671 C 261.381 64.170,259.771 62.685,259.324 62.371 C 258.876 62.057,257.108 60.495,255.396 58.900 C 253.684 57.305,252.126 56.000,251.935 56.000 C 251.744 56.000,250.237 54.650,248.587 53.000 C 246.937 51.350,245.419 50.000,245.213 50.000 C 245.007 50.000,243.598 48.785,242.081 47.300 C 240.564 45.815,238.638 44.064,237.802 43.408 C 236.965 42.753,235.294 41.268,234.087 40.108 C 232.880 38.949,231.728 38.000,231.527 38.000 C 231.326 38.000,229.919 36.740,228.400 35.200 C 226.881 33.660,225.541 32.400,225.421 32.400 C 225.302 32.400,224.268 31.484,223.124 30.364 C 221.980 29.244,219.955 27.493,218.622 26.474 C 217.290 25.455,215.357 23.761,214.326 22.710 C 213.295 21.660,212.276 20.800,212.062 20.800 C 211.848 20.800,210.405 19.540,208.855 18.000 C 207.306 16.460,205.932 15.200,205.803 15.200 C 205.673 15.200,205.180 14.840,204.708 14.400 C 204.214 13.940,203.296 13.600,202.548 13.600 C 201.833 13.600,201.136 13.420,201.000 13.200 C 200.864 12.980,200.414 12.800,200.000 12.800 C 199.586 12.800,199.136 12.980,199.000 13.200 M202.726 35.903 C 203.757 36.950,205.403 38.435,206.385 39.203 C 207.367 39.972,209.008 41.410,210.033 42.400 C 212.177 44.471,213.515 45.600,213.827 45.600 C 213.946 45.600,215.069 46.639,216.322 47.910 C 217.575 49.180,219.230 50.660,220.000 51.199 C 220.770 51.737,222.211 52.993,223.203 53.989 C 224.195 54.985,225.905 56.517,227.003 57.394 C 228.101 58.271,229.843 59.846,230.874 60.894 C 231.905 61.942,232.918 62.800,233.126 62.800 C 233.334 62.800,234.987 64.240,236.800 66.000 C 238.613 67.760,240.267 69.200,240.477 69.200 C 240.686 69.200,241.069 69.436,241.329 69.724 C 241.588 70.012,242.420 70.912,243.178 71.724 L 244.557 73.200 199.978 73.195 L 155.400 73.189 157.800 70.975 C 159.120 69.757,161.417 67.599,162.905 66.180 C 164.393 64.761,165.788 63.600,166.005 63.600 C 166.222 63.600,166.400 63.420,166.400 63.200 C 166.400 62.980,166.584 62.800,166.809 62.800 C 167.033 62.800,168.180 61.855,169.357 60.700 C 170.534 59.545,172.177 58.060,173.008 57.400 C 173.840 56.740,175.583 55.165,176.882 53.900 C 178.182 52.635,179.412 51.600,179.616 51.600 C 179.820 51.600,181.337 50.250,182.987 48.600 C 184.637 46.950,186.133 45.600,186.312 45.600 C 186.491 45.600,187.819 44.475,189.265 43.100 C 190.710 41.725,192.502 40.158,193.246 39.618 C 193.991 39.077,195.590 37.604,196.800 36.342 C 199.568 33.457,200.267 33.406,202.726 35.903 M370.800 90.641 C 370.800 90.847,364.748 97.119,354.342 107.698 L 351.683 110.400 200.155 110.400 L 48.626 110.400 38.913 100.589 C 33.571 95.193,29.200 90.693,29.200 90.589 C 29.200 90.485,106.060 90.400,200.000 90.400 C 293.940 90.400,370.800 90.508,370.800 90.641 M21.312 107.726 C 24.001 110.435,28.405 114.927,31.100 117.709 L 36.000 122.766 36.000 230.774 L 36.000 338.781 34.188 340.491 C 32.169 342.394,27.184 347.398,20.713 354.016 C 18.355 356.427,16.330 358.400,16.213 358.400 C 16.096 358.400,16.000 300.890,16.000 230.600 C 16.000 160.310,16.096 102.800,16.212 102.800 C 16.329 102.800,18.624 105.017,21.312 107.726 M383.827 358.306 C 383.732 358.401,381.663 356.437,379.230 353.940 C 373.865 348.433,368.242 342.801,365.804 340.491 L 364.000 338.781 364.000 230.846 L 364.000 122.911 373.900 112.819 L 383.800 102.727 383.901 230.430 C 383.956 300.666,383.923 358.210,383.827 358.306 M347.200 230.000 L 347.200 332.400 200.000 332.400 L 52.800 332.400 52.800 230.000 L 52.800 127.600 200.000 127.600 L 347.200 127.600 347.200 230.000 M248.800 146.000 C 248.800 146.220,248.001 146.400,247.024 146.400 C 246.047 146.400,245.136 146.580,245.000 146.800 C 244.864 147.020,244.324 147.200,243.800 147.200 C 243.276 147.200,242.736 147.380,242.600 147.600 C 242.464 147.820,241.913 148.000,241.376 148.000 C 240.839 148.000,240.400 148.180,240.400 148.400 C 240.400 148.620,240.040 148.800,239.600 148.800 C 239.160 148.800,238.800 148.980,238.800 149.200 C 238.800 149.420,238.480 149.600,238.088 149.600 C 237.697 149.600,237.117 149.960,236.800 150.400 C 236.483 150.840,235.943 151.200,235.600 151.200 C 235.257 151.200,234.717 151.560,234.400 152.000 C 234.083 152.440,233.590 152.800,233.304 152.800 C 232.810 152.800,228.242 157.187,227.400 158.471 C 227.180 158.806,226.505 159.824,225.900 160.732 C 225.295 161.641,224.800 162.658,224.800 162.992 C 224.800 163.326,224.620 163.600,224.400 163.600 C 224.180 163.600,224.000 163.960,224.000 164.400 C 224.000 164.840,223.820 165.200,223.600 165.200 C 223.380 165.200,223.200 165.560,223.200 166.000 C 223.200 166.440,223.020 166.800,222.800 166.800 C 222.580 166.800,222.400 167.340,222.400 168.000 C 222.400 168.660,222.220 169.200,222.000 169.200 C 221.780 169.200,221.600 169.920,221.600 170.800 C 221.600 171.680,221.420 172.400,221.200 172.400 C 220.949 172.400,220.800 174.992,220.800 179.376 C 220.800 183.596,220.958 186.450,221.200 186.600 C 221.420 186.736,221.600 187.467,221.600 188.224 C 221.600 188.981,221.780 189.600,222.000 189.600 C 222.220 189.600,222.400 190.050,222.400 190.600 C 222.400 191.150,222.580 191.600,222.800 191.600 C 223.020 191.600,223.200 192.140,223.200 192.800 C 223.200 193.460,223.380 194.000,223.600 194.000 C 223.820 194.000,224.000 194.360,224.000 194.800 C 224.000 195.240,224.135 195.600,224.300 195.601 C 224.465 195.601,225.122 196.600,225.759 197.821 C 227.652 201.444,235.449 208.800,237.396 208.800 C 237.728 208.800,238.000 208.980,238.000 209.200 C 238.000 209.420,238.360 209.600,238.800 209.600 C 239.240 209.600,239.600 209.780,239.600 210.000 C 239.600 210.220,239.949 210.400,240.376 210.400 C 240.803 210.400,241.264 210.580,241.400 210.800 C 241.536 211.020,242.087 211.200,242.624 211.200 C 243.161 211.200,243.600 211.380,243.600 211.600 C 243.600 211.820,244.230 212.000,245.000 212.000 C 245.770 212.000,246.400 212.180,246.400 212.400 C 246.400 212.637,247.867 212.800,250.000 212.800 C 252.133 212.800,253.600 212.963,253.600 213.200 C 253.600 213.420,253.870 213.600,254.200 213.600 C 254.530 213.600,254.800 213.420,254.800 213.200 C 254.800 212.963,256.267 212.800,258.400 212.800 C 260.533 212.800,262.000 212.637,262.000 212.400 C 262.000 212.180,262.720 212.000,263.600 212.000 C 264.480 212.000,265.200 211.820,265.200 211.600 C 265.200 211.380,265.549 211.200,265.976 211.200 C 266.403 211.200,266.864 211.020,267.000 210.800 C 267.136 210.580,267.687 210.400,268.224 210.400 C 268.761 210.400,269.200 210.220,269.200 210.000 C 269.200 209.780,269.560 209.600,270.000 209.600 C 270.440 209.600,270.800 209.432,270.800 209.227 C 270.800 209.022,271.202 208.726,271.692 208.571 C 273.602 207.964,281.600 200.638,281.600 199.494 C 281.600 199.209,281.960 198.717,282.400 198.400 C 282.840 198.083,283.200 197.518,283.200 197.145 C 283.200 196.772,283.335 196.407,283.500 196.333 C 283.932 196.141,285.600 192.828,285.600 192.162 C 285.600 191.853,285.780 191.600,286.000 191.600 C 286.220 191.600,286.400 191.161,286.400 190.624 C 286.400 190.087,286.580 189.536,286.800 189.400 C 287.020 189.264,287.200 188.544,287.200 187.800 C 287.200 187.056,287.380 186.336,287.600 186.200 C 287.840 186.052,288.000 183.396,288.000 179.576 C 288.000 175.592,287.850 173.200,287.600 173.200 C 287.380 173.200,287.200 172.491,287.200 171.624 C 287.200 170.757,287.020 169.936,286.800 169.800 C 286.580 169.664,286.400 169.124,286.400 168.600 C 286.400 168.076,286.220 167.536,286.000 167.400 C 285.780 167.264,285.600 166.713,285.600 166.176 C 285.600 165.639,285.420 165.200,285.200 165.200 C 284.980 165.200,284.800 164.840,284.800 164.400 C 284.800 163.960,284.620 163.600,284.400 163.600 C 284.180 163.600,284.000 163.364,284.000 163.075 C 284.000 162.787,283.685 162.202,283.300 161.775 C 282.915 161.349,282.345 160.505,282.032 159.900 C 281.720 159.295,281.315 158.800,281.132 158.800 C 280.950 158.800,280.800 158.617,280.800 158.393 C 280.800 157.861,275.739 152.800,275.207 152.800 C 274.983 152.800,274.800 152.650,274.800 152.468 C 274.800 152.285,274.305 151.880,273.700 151.568 C 273.095 151.255,272.251 150.685,271.825 150.300 C 271.398 149.915,270.813 149.600,270.525 149.600 C 270.236 149.600,270.000 149.420,270.000 149.200 C 270.000 148.980,269.651 148.800,269.224 148.800 C 268.797 148.800,268.336 148.620,268.200 148.400 C 268.064 148.180,267.513 148.000,266.976 148.000 C 266.439 148.000,266.000 147.820,266.000 147.600 C 266.000 147.380,265.460 147.200,264.800 147.200 C 264.140 147.200,263.600 147.020,263.600 146.800 C 263.600 146.580,262.700 146.400,261.600 146.400 C 260.500 146.400,259.600 146.220,259.600 146.000 C 259.600 145.753,257.533 145.600,254.200 145.600 C 250.867 145.600,248.800 145.753,248.800 146.000 M257.600 163.200 C 257.600 163.420,258.140 163.600,258.800 163.600 C 259.460 163.600,260.000 163.780,260.000 164.000 C 260.000 164.220,260.326 164.400,260.725 164.400 C 261.123 164.400,261.836 164.760,262.308 165.200 C 262.780 165.640,263.359 166.000,263.594 166.000 C 264.192 166.000,267.283 169.184,267.968 170.505 C 268.280 171.107,268.685 171.600,268.868 171.600 C 269.050 171.600,269.200 171.960,269.200 172.400 C 269.200 172.840,269.380 173.200,269.600 173.200 C 269.820 173.200,270.000 173.650,270.000 174.200 C 270.000 174.750,270.180 175.200,270.400 175.200 C 270.640 175.200,270.800 176.800,270.800 179.200 C 270.800 181.600,270.640 183.200,270.400 183.200 C 270.180 183.200,270.000 183.740,270.000 184.400 C 270.000 185.060,269.820 185.600,269.600 185.600 C 269.380 185.600,269.200 185.960,269.200 186.400 C 269.200 186.840,269.020 187.200,268.800 187.200 C 268.580 187.200,268.400 187.486,268.400 187.835 C 268.400 189.248,261.506 194.800,259.750 194.800 C 259.447 194.800,259.200 194.980,259.200 195.200 C 259.200 195.420,258.378 195.600,257.374 195.600 C 256.369 195.600,255.210 195.780,254.798 196.001 C 254.297 196.269,253.966 196.269,253.801 196.001 C 253.664 195.780,252.663 195.600,251.576 195.600 C 250.489 195.600,249.600 195.420,249.600 195.200 C 249.600 194.980,249.323 194.800,248.984 194.800 C 247.622 194.800,244.854 193.097,242.678 190.922 C 240.776 189.020,240.518 188.653,239.587 186.538 C 239.118 185.472,238.569 184.287,238.367 183.905 C 237.862 182.950,237.891 175.200,238.400 175.200 C 238.620 175.200,238.800 174.845,238.800 174.412 C 238.800 172.435,243.465 166.000,244.898 166.000 C 245.187 166.000,245.683 165.640,246.000 165.200 C 246.317 164.760,246.976 164.400,247.465 164.400 C 247.953 164.400,248.464 164.220,248.600 164.000 C 248.736 163.780,249.377 163.600,250.024 163.600 C 250.671 163.600,251.200 163.420,251.200 163.200 C 251.200 162.967,252.533 162.800,254.400 162.800 C 256.267 162.800,257.600 162.967,257.600 163.200 M353.487 352.900 C 355.379 354.715,358.024 357.347,359.364 358.749 C 360.704 360.151,363.645 363.164,365.900 365.444 C 368.155 367.725,370.000 369.683,370.000 369.795 C 370.000 369.908,293.500 370.000,200.000 370.000 C 106.500 370.000,30.000 369.922,30.000 369.827 C 30.000 369.616,40.705 358.592,43.166 356.268 C 44.137 355.350,46.027 353.489,47.366 352.130 L 49.800 349.661 199.923 349.630 L 350.046 349.600 353.487 352.900 " stroke="none" fill="#04048c" fill-rule="evenodd"></path></g></svg>